<?xml version="1.0" encoding="UTF-8"?>
<svg id="Layer_2" data-name="Layer 2" xmlns="http://www.w3.org/2000/svg" viewBox="0 0 399.07 108.83">
  <g id="Layer_1-2" data-name="Layer 1">
    <g>
      <polygon points="230.06 64.21 183.1 0 130.24 0 130.24 45.61 155.52 106.63 156.43 108.83 170.66 108.83 170.66 44.62 217.62 108.83 270.48 108.83 270.48 0 230.06 0 230.06 64.21"/>
      <path d="M105.1,0H45.09L0,108.83H44.47l7.46-19.59h46.33l7.47,19.59h44.46l-19.95-48.16L105.1,0ZM62.5,61.26l12.6-33.27,12.59,33.27h-25.19Z"/>
      <polygon points="399.07 0 276.24 0 276.24 34.2 341.54 34.2 276.24 74.63 276.24 108.83 399.07 108.83 399.07 74.63 333.77 74.63 399.07 34.2 399.07 0"/>
    </g>
  </g>
</svg>