<?xml version="1.0" encoding="UTF-8"?>
<svg id="Layer_2" data-name="Layer 2" xmlns="http://www.w3.org/2000/svg" viewBox="0 0 402.82 111.83">
  <g id="Layer_2-2" data-name="Layer 2">
    <g id="Layer_1-2" data-name="Layer 1-2">
      <g>
        <path d="m274.23,111.83h-55.12l-44.7-61.12v61.12h-16.73l-26.69-64.42V0h55.12l44.7,61.12V0h43.42v111.83Zm-53.6-3h50.6V3h-37.42v67.3L184.58,3h-50.6v43.81l25.69,62.02h11.73V41.53l49.22,67.3Z"/>
        <path d="m154.68,111.83h-47.74l-7.47-19.59h-44.26l-7.46,19.59H0L46.33,0h62.01l46.33,111.83Zm-45.67-3h41.18L106.34,3h-58.01L4.49,108.83h41.19l7.46-19.59h48.4l7.47,19.59Zm-16.9-44.57h-29.53l14.77-39.01,14.76,39.01Zm-25.19-3h20.85l-10.42-27.53-10.43,27.53Z"/>
        <path d="m402.82,111.83h-125.83v-36.54l61.53-38.09h-61.53V0h125.83v36.54l-61.53,38.09h61.53v37.2Zm-122.83-3h119.83v-31.2h-69.07l69.07-42.77V3h-119.83v31.2h69.07l-69.07,42.77v31.86Z"/>
      </g>
    </g>
  </g>
</svg>